<?xml version="1.0" encoding="iso-8859-1"?>
<!-- Generator: Adobe Illustrator 18.0.0, SVG Export Plug-In . SVG Version: 6.00 Build 0)  -->
<!DOCTYPE svg PUBLIC "-//W3C//DTD SVG 1.1//EN" "http://www.w3.org/Graphics/SVG/1.1/DTD/svg11.dtd">
<svg version="1.1" id="Capa_1" xmlns="http://www.w3.org/2000/svg" xmlns:xlink="http://www.w3.org/1999/xlink" x="0px" y="0px"
	 viewBox="0 0 444.2 444.2" style="enable-background:new 0 0 444.2 444.2;" xml:space="preserve">
<g>
	<path d="M437.264,303.948l-56.17-50.99c-5.171-4.683-6.847-11.986-4.278-18.62c3.707-8.989,2.356-19.527-3.534-27.521
		l-42.724-57.929c7.406-12.407,28.488-53.971,10.343-99.67c-0.839-2.111-2.798-3.568-5.062-3.764
		c-2.26-0.193-4.443,0.905-5.631,2.843l-1.709,2.798c-12.457,20.417-25.317,41.477-56.889,48.025
		c-0.344-17.871-3.372-39.454-14.335-52.947c-1.037-1.276-2.551-2.07-4.19-2.198c-1.634-0.128-3.258,0.422-4.48,1.522
		c-8.942,8.048-68.64,87.092-118.786,155.869C96.96,246.433,18.591,355.185,0.621,391.586c-1.467,2.972-0.247,6.569,2.724,8.036
		c0.854,0.422,1.76,0.622,2.652,0.622c2.211,0,4.339-1.228,5.384-3.346c25.152-50.949,177.329-257.369,228.946-322.893
		c-4.603,14.656-11.218,29.24-19.763,43.507c-7.062,11.791-9.458,25.21-6.928,38.806c0.537,2.887,3.058,4.904,5.892,4.904
		c0.364,0,0.733-0.033,1.104-0.102c3.258-0.606,5.408-3.738,4.802-6.996c-2.015-10.828-0.189-21.071,5.425-30.445
		c11.124-18.575,19.177-37.71,23.975-56.921c8.45,24.621,3.194,60.82,3.128,61.256c-0.492,3.276,1.764,6.331,5.04,6.825
		c3.277,0.489,6.333-1.763,6.827-5.039c0.124-0.822,1.191-8.148,1.63-18.428c28.406-5.084,44.164-20.004,55.897-36.381
		c-2.549,19.614-7.909,43.638-18.154,54.262c-2.3,2.386-2.231,6.184,0.154,8.484c1.165,1.123,2.666,1.681,4.165,1.681
		c1.572,0,3.142-0.614,4.319-1.835c8.287-8.594,13.658-22.807,17.139-37.231c-3.67,26.223-16.418,45.095-16.613,45.378
		c-1.464,2.109-1.423,4.916,0.101,6.982l45.157,61.228c3.37,4.574,4.188,10.8,2.083,15.862c-0.017,0.04-0.033,0.081-0.049,0.121
		c-4.425,11.329-1.527,23.863,7.376,31.927l56.171,50.99c1.876,1.699,2.939,4.029,2.994,6.561c0.055,2.538-0.91,4.918-2.705,6.691
		l-3.516,3.452c-25.309,24.991-63.928,31.579-96.104,16.387l-20.759-9.763c-15.932-7.521-34.345-6.371-49.257,3.08
		c-14.869,9.423-23.746,25.529-23.746,43.083v11.775c0,3.314,2.687,6,6,6s6-2.686,6-6v-11.775c0-13.421,6.792-25.738,18.169-32.948
		c11.419-7.238,25.517-8.121,37.718-2.36l20.759,9.763c13.169,6.217,27.282,9.237,41.303,9.236
		c25.062-0.001,49.825-9.649,68.334-27.928l3.516-3.452c4.118-4.066,6.408-9.716,6.283-15.501
		C444.068,313.275,441.605,307.878,437.264,303.948z"/>
	<circle cx="318.415" cy="234.43" r="8.647"/>
</g>
<g>
</g>
<g>
</g>
<g>
</g>
<g>
</g>
<g>
</g>
<g>
</g>
<g>
</g>
<g>
</g>
<g>
</g>
<g>
</g>
<g>
</g>
<g>
</g>
<g>
</g>
<g>
</g>
<g>
</g>
</svg>
