<?xml version="1.0" encoding="iso-8859-1"?>
<!-- Generator: Adobe Illustrator 19.0.0, SVG Export Plug-In . SVG Version: 6.00 Build 0)  -->
<svg version="1.1" id="Layer_1" xmlns="http://www.w3.org/2000/svg" xmlns:xlink="http://www.w3.org/1999/xlink" x="0px" y="0px"
	 viewBox="0 0 512 512" style="enable-background:new 0 0 512 512;" xml:space="preserve">
<g>
	<path style="fill:#FFD77D;" d="M504.002,207.553c0,0-60.984-73.182-146.362-73.182c-14.444,0-25.217,1.438-34.069,3.87l9.675-3.87
		c-4.404-4.404-31.847-24.394-56.918-24.394c0,0-2.71,24.394,16.262,40.656l13.592-5.438
		c-20.092,10.642-34.955,26.857-86.773,37.961c-94.865,20.328-174.143,23.039-211.412,56.919c0,0,42.18,0,48.787,0l12.109-5.694
		c-20.786,12.219-40.822,26.019-53.782,39.235c0,0,48.448-17.278,82.329-17.278c33.033,0,55.512,10.589,65.05,24.393
		c19.312,27.951,16.987,87.535-0.677,121.29c0,0,56.918-43.365,56.918-96.897c0-38.623,5.421-88.766,23.716-88.766
		c0,0,46.688,46.579,74.537,56.24c11.992,4.16,26.552,6.753,42.345,7.287l-1.689,0.844c3.368,0,6.287-0.262,8.861-0.744
		C414.952,279.698,472.764,260.106,504.002,207.553z"/>
	<path style="fill:#FFD77D;" d="M176.848,346.944c-1.555-23.246-4.225-44.734-12.131-57.986
		c-6.776,32.524-24.394,58.273-40.656,81.312C123.507,371.052,159.23,367.273,176.848,346.944z"/>
	<path style="fill:#FFD77D;" d="M11.998,240.334h61C140.499,199.5,203,188,203,188C127.999,189,62.999,205.334,11.998,240.334z"/>
</g>
<path style="fill:#FFB455;" d="M356.001,136.333c-56.152,8.109-136.001,48-136.001,48c-80.001,0-167.334,54.666-201.002,89.001
	c0,0,47.667-17,81.001-17c32.5,0,54.616,10.418,64.001,24c19,27.5,16.713,86.122-0.667,119.333c0,0,56-28.332,56-95.333
	c0-34.139,5.41-84.28,19.555-94.147c23.936,28.434,69.826,70.147,133.113,70.147c96.001,0,128.001-64.001,128.001-64.001
	S443.098,123.755,356.001,136.333z"/>
<path style="fill:#FFD77D;" d="M375.849,235.943c-19.882,9.941-28.342,29.221-50,35.494l6.744,5.266l-14.399-5.76
	c0,0-33.008,32.369-32.525,32.524c25.41,8.132,32.525,32.524,32.525,32.524l40.656-48.787l-9.063-3.625
	c3.302,0.238,6.656,0.363,10.063,0.363c96.001,0,128.001-64.001,128.001-64.001C423.849,251.943,407.849,219.943,375.849,235.943z"
	/>
<path style="fill:#FF9646;" d="M317.738,269.674C284.666,257,309.001,207.667,276,192.334c-16.223-7.538-32,8-37.112,17.854
	C254.559,230.08,277.898,254.406,317.738,269.674z"/>
<path style="fill:#FFD77D;" d="M188,216.334c-111.001,13-123.001,35-169.001,57c0,0,47.667-17,81.001-17
	c32.5,0,54.616,10.418,64.001,24c19,27.5,16.713,86.122-0.667,119.333C228,352.335,188,216.334,188,216.334z"/>
<path style="fill:#FF9646;" d="M408.5,216.334c0-22.199,11.178-42.236,29.031-56.328c-4.795-2.859-9.835-5.584-15.108-8.101
	c-18.524,16.745-29.923,39.454-29.923,64.43c0,22.279,9.074,42.754,24.182,58.802c6.182-1.531,11.958-3.349,17.355-5.38
	C418.231,255.881,408.5,237.049,408.5,216.334z"/>
<path d="M511.98,206.941c-0.002-0.03-0.008-0.061-0.011-0.091c-0.03-0.334-0.084-0.664-0.155-0.991
	c-0.017-0.075-0.031-0.15-0.049-0.226c-0.085-0.345-0.191-0.684-0.322-1.015c-0.022-0.056-0.048-0.109-0.071-0.164
	c-0.133-0.318-0.287-0.629-0.461-0.93c-0.019-0.031-0.033-0.063-0.052-0.094c-0.194-0.324-0.417-0.633-0.659-0.93
	c-0.018-0.022-0.031-0.048-0.049-0.069c-0.65-0.78-16.223-19.318-42.696-38.005c-35.269-24.896-73.241-38.055-109.812-38.055
	c-7.547,0-14.167,0.389-20.089,1.091c-8.162-7.133-35.647-25.484-61.223-25.484c-4.076,0-7.501,3.065-7.951,7.116
	c-0.117,1.051-2.382,23.541,13.145,41.733c-13.743,8.462-30.929,17.467-63.79,24.509c-26.486,5.676-51.325,9.896-75.348,13.979
	c-62.149,10.564-111.24,18.907-139.769,44.842c-2.446,2.224-3.272,5.722-2.081,8.805s4.157,5.115,7.462,5.115h25.154
	c-9.136,6.627-17.299,13.36-23.751,19.939c-2.609,2.661-3.036,6.771-1.028,9.911c2.008,3.139,5.916,4.478,9.428,3.226
	c0.471-0.168,47.516-16.814,79.642-16.814c31.965,0,50.902,10.502,58.143,20.495c-0.424,0.727-0.745,1.529-0.926,2.398
	c-6.671,32.019-24.796,57.697-39.359,78.33c-2.459,3.483-1.729,8.352,1.627,10.98c2.257,1.768,6.743,2.293,11.278,2.293
	c6.588,0,13.28-1.108,13.393-1.128c6.671-1.158,15.121-3.567,23.113-8.48c-2.221,10.596-5.547,20.606-9.985,29.087
	c-1.739,3.321-0.937,7.405,1.929,9.823c1.486,1.254,3.321,1.886,5.16,1.886c1.705,0,3.413-0.543,4.848-1.637
	c2.453-1.868,60.07-46.421,60.07-103.261c0-49.516,8.028-74.356,13.58-79.669c9.986,9.625,38.985,36.633,62.792,49.572
	c-2.471,2.435-5.261,5.188-8.058,7.958c-4.749,4.701-8.531,8.473-11.242,11.209c-6.464,6.524-8.202,8.277-7.133,12.774
	c0.648,2.726,2.681,4.92,5.35,5.773c20.858,6.676,27.042,26.351,27.283,27.146c0.828,2.838,3.154,4.988,6.048,5.592
	c0.543,0.113,1.09,0.168,1.633,0.168c2.346,0,4.608-1.034,6.145-2.879l40.656-48.786c1.396-1.676,1.988-3.753,1.825-5.768
	c0.508-0.069,1.01-0.145,1.5-0.227c15.896-0.159,32.252-2.289,47.915-6.451c29.422-7.821,69.936-26.297,95.854-69.9
	c0.011-0.019,0.017-0.039,0.028-0.058c0.189-0.322,0.351-0.654,0.49-0.992c0.026-0.064,0.049-0.13,0.075-0.194
	c0.128-0.336,0.237-0.676,0.318-1.021c0.004-0.017,0.01-0.032,0.013-0.049c0.082-0.358,0.132-0.721,0.163-1.084
	c0.006-0.075,0.012-0.149,0.016-0.225C512.004,207.658,512.007,207.298,511.98,206.941z M316.505,132.032
	c-8.125,2.73-14.751,6.259-21.196,10.164c-7.503-7.729-10.025-17.02-10.804-23.475C296.431,120.801,308.237,126.859,316.505,132.032
	z M85.08,216.197c-9.221,4.922-18.668,10.279-27.825,15.894c-0.154-0.009-0.31-0.014-0.466-0.014H34.751
	C48.617,225.438,65.588,220.498,85.08,216.197z M167.746,346.451c-1.184,0.456-2.278,1.197-3.167,2.224
	c-7.644,8.819-18.756,12.341-27.489,13.599c10.111-14.884,21.001-32.782,28.147-53.488
	C167.706,320.158,168.54,333.255,167.746,346.451z M318.832,322.942c-4.083-6.653-10.642-14.638-20.692-20.463
	c5.51-5.511,13.333-13.245,21.008-20.786c9.148,2.757,19.074,4.608,29.424,5.563L318.832,322.942z M393.684,269.6
	c0.192-0.259,0.384-0.518,0.575-0.775c5.412-7.305,11.007-14.857,24.01-21.658c9.469-4.953,24.601-8.699,39.233-12.321
	c6.475-1.604,12.708-3.147,18.526-4.774C452.965,252.316,422.997,264.769,393.684,269.6z M453.659,219.314
	c-15.551,3.85-31.631,7.83-42.805,13.675c-16.256,8.503-23.572,18.377-29.45,26.311c-5.049,6.815-8.187,11.041-15.502,12.668
	c-17.154,0.101-33.16-2.368-46.292-6.923c-25.791-8.948-71.054-53.894-71.508-54.347c-1.5-1.495-3.532-2.336-5.65-2.336
	c-18.943,0-24.667,27.289-26.548,36.257c-4.496,21.435-5.167,47.11-5.167,60.508c0,26.783-15.997,51.285-30.539,68.026
	c7.22-33.458,5.056-73.556-11.12-96.968c-12.047-17.436-38.825-27.846-71.632-27.846c-14.506,0-31.304,2.946-46.125,6.44
	c38.275-25.834,88.706-48.265,99.522-50.362c0.686-0.133,1.334-0.35,1.936-0.638c21.793-3.716,44.329-7.659,68.312-12.798
	c40.916-8.768,60.031-20.901,75.392-30.651c16.425-10.426,28.292-17.958,61.162-17.958c66.659,0,118.668,47.729,134.912,64.537
	C483.955,211.811,467.471,215.895,453.659,219.314z"/>
<path d="M401.699,209.232c-5.573,4.086-14.701,5.636-22.915,6.223c1.721-4.494,3.121-9.962,3.121-16.034
	c0-5.956-1.347-11.332-3.023-15.777c7.584,0.826,15.604,2.688,24.108,6.738c3.987,1.902,8.763,0.205,10.662-3.783
	c1.9-3.989,0.206-8.763-3.783-10.662c-16.441-7.83-30.91-8.909-44.095-8.909c-2.872,0-5.584,1.569-7.008,4.063
	c-2.385,4.179-0.243,7.807,1.037,9.974c1.98,3.354,6.102,10.333,6.102,18.356c0,8.024-4.122,15.003-6.102,18.356
	c-1.28,2.168-3.422,5.795-1.037,9.974c1.424,2.494,4.136,4.063,7.008,4.063c16.717,0,33.786-1.173,45.386-9.68
	c3.563-2.612,4.333-7.619,1.721-11.182C410.269,207.389,405.262,206.62,401.699,209.232z"/>
<path d="M447.15,191.294c-4.418,0-8.063,3.646-8.063,8.063c0,4.417,3.645,8.063,8.063,8.063s8.063-3.646,8.063-8.063
	C455.213,194.94,451.568,191.294,447.15,191.294z"/>
<g>
</g>
<g>
</g>
<g>
</g>
<g>
</g>
<g>
</g>
<g>
</g>
<g>
</g>
<g>
</g>
<g>
</g>
<g>
</g>
<g>
</g>
<g>
</g>
<g>
</g>
<g>
</g>
<g>
</g>
</svg>
